<svg width="56" height="37" viewBox="0 0 56 37" fill="none" xmlns="http://www.w3.org/2000/svg">
<rect x="0.0932617" y="0.019043" width="55.3846" height="36" rx="2.80584" fill="#EDEDED"/>
<path d="M48.555 18.955V17.0621H45.4966V13.8652H43.3058V17.0621H40.2473V18.955H43.3058V22.1729H45.4966V18.955H48.555Z" fill="#000055"/>
<path d="M16.7602 8.32674C17.848 8.32674 18.85 8.44948 19.766 8.69496C20.6821 8.92292 21.4741 9.27361 22.1421 9.74705C22.81 10.2029 23.3253 10.7641 23.6879 11.4304C24.0696 12.0967 24.2604 12.8507 24.2604 13.6924C24.2604 14.6918 24.0314 15.6475 23.5734 16.5593C23.1345 17.4711 22.4856 18.3566 21.6268 19.2158C20.787 20.075 19.7565 20.9167 18.5351 21.7408C17.3136 22.5474 15.9395 23.354 14.4128 24.1606H24.3463V27.7113H8.40112V24.1606C9.7943 23.2312 11.1589 22.3282 12.4948 21.4515C13.8307 20.5572 15.0139 19.6892 16.0445 18.8476C17.0942 17.9884 17.9339 17.1555 18.5637 16.3489C19.1935 15.5423 19.5084 14.7444 19.5084 13.9554C19.5084 13.1312 19.2221 12.5263 18.6496 12.1405C18.077 11.7372 17.3995 11.5356 16.6171 11.5356C16.1972 11.5356 15.7773 11.6057 15.3575 11.746C14.9567 11.8687 14.5941 12.0792 14.2696 12.3773C13.9643 12.6753 13.7162 13.0874 13.5253 13.6134C13.3345 14.122 13.2582 14.7532 13.2963 15.5072H8.63014C8.59197 14.385 8.76373 13.3767 9.14542 12.4825C9.5462 11.5882 10.1092 10.8342 10.8344 10.2205C11.5596 9.60677 12.428 9.1421 13.4395 8.82647C14.4509 8.49332 15.5579 8.32674 16.7602 8.32674Z" fill="#000055"/>
<path d="M31.3986 27.7113V14.9022H26.6752V11.7197C27.534 11.7022 28.2783 11.632 28.9081 11.5093C29.5569 11.369 30.1104 11.1761 30.5684 10.9306C31.0265 10.6852 31.4082 10.3783 31.7135 10.0101C32.0189 9.6243 32.2861 9.1684 32.5151 8.64236H36.0934V27.7113H31.3986Z" fill="#000055"/>
</svg>
