<svg width="46" height="37" viewBox="0 0 46 37" fill="none" xmlns="http://www.w3.org/2000/svg">
<path fill-rule="evenodd" clip-rule="evenodd" d="M13.6802 27.3792C16.7518 27.3792 19.5875 26.3667 21.8709 24.6574C18.9744 21.9026 17.1688 18.0119 17.1688 13.6993C17.1688 9.38635 18.9744 5.49564 21.8709 2.74117C19.5875 1.03153 16.7518 0.019043 13.6802 0.019043C6.12487 0.019043 0 6.14391 0 13.6993C0 21.2543 6.12487 27.3792 13.6802 27.3792ZM32.289 0.019043C29.2171 0.019043 26.3817 1.03153 24.0984 2.74117C26.9945 5.49564 28.8001 9.38635 28.8001 13.6993C28.8001 18.0119 26.9945 21.9026 24.0984 24.6574C26.3817 26.3667 29.2171 27.3792 32.289 27.3792C39.844 27.3792 45.9689 21.2543 45.9689 13.6993C45.9689 6.14391 39.844 0.019043 32.289 0.019043ZM27.3601 13.6993C27.3601 9.73721 25.6758 6.16852 22.9846 3.67034C20.2931 6.16852 18.6088 9.73721 18.6088 13.6993C18.6088 17.661 20.2931 21.2297 22.9846 23.7279C25.6758 21.2297 27.3601 17.661 27.3601 13.6993Z" fill="#EDEDED"/>
<path d="M7.31193 35.9349V33.4094C7.31193 32.4413 6.72403 31.8099 5.71619 31.8099C5.21227 31.8099 4.66636 31.9783 4.28842 32.5255C3.99447 32.0625 3.57453 31.8099 2.94463 31.8099C2.5247 31.8099 2.10477 31.9362 1.76882 32.3992V31.8941H0.886963V35.9349H1.76882V33.704C1.76882 32.9885 2.14676 32.6517 2.73466 32.6517C3.32257 32.6517 3.61653 33.0306 3.61653 33.704V35.9349H4.49839V33.704C4.49839 32.9885 4.91831 32.6517 5.46423 32.6517C6.05213 32.6517 6.34609 33.0306 6.34609 33.704V35.9349H7.31193ZM20.3718 31.8941H18.9441V30.6735H18.0622V31.8941H17.2643V32.6938H18.0622V34.5459C18.0622 35.4719 18.4401 36.019 19.448 36.019C19.8259 36.019 20.2459 35.8928 20.5398 35.7244L20.2878 34.9668C20.0359 35.1351 19.7419 35.1772 19.532 35.1772C19.112 35.1772 18.9441 34.9247 18.9441 34.5038V32.6938H20.3718V31.8941ZM27.8466 31.8099C27.3427 31.8099 27.0068 32.0625 26.7968 32.3992V31.8941H25.915V35.9349H26.7968V33.6619C26.7968 32.9885 27.0908 32.6097 27.6367 32.6097C27.8046 32.6097 28.0146 32.6518 28.1826 32.6938L28.4345 31.852C28.2666 31.8099 28.0146 31.8099 27.8466 31.8099ZM16.5504 32.2308C16.1305 31.9362 15.5426 31.8099 14.9127 31.8099C13.9049 31.8099 13.233 32.315 13.233 33.1148C13.233 33.7882 13.7369 34.167 14.6188 34.2933L15.0387 34.3354C15.5006 34.4196 15.7526 34.5459 15.7526 34.7563C15.7526 35.0509 15.4166 35.2614 14.8287 35.2614C14.2408 35.2614 13.7789 35.051 13.4849 34.8405L13.065 35.514C13.5269 35.8507 14.1568 36.019 14.7867 36.019C15.9625 36.019 16.6344 35.4719 16.6344 34.7142C16.6344 33.9987 16.0885 33.6198 15.2487 33.4936L14.8287 33.4515C14.4508 33.4094 14.1568 33.3252 14.1568 33.0727C14.1568 32.778 14.4508 32.6097 14.9127 32.6097C15.4166 32.6097 15.9206 32.8201 16.1725 32.9464L16.5504 32.2308ZM39.9827 31.8099C39.4788 31.8099 39.1428 32.0625 38.9329 32.3992V31.8941H38.051V35.9349H38.9329V33.6619C38.9329 32.9885 39.2268 32.6097 39.7727 32.6097C39.9407 32.6097 40.1507 32.6518 40.3186 32.6938L40.5706 31.852C40.4026 31.8099 40.1507 31.8099 39.9827 31.8099ZM28.7285 33.9145C28.7285 35.1351 29.5684 36.019 30.8702 36.019C31.4581 36.019 31.878 35.8928 32.2979 35.5561L31.878 34.8405C31.542 35.093 31.2061 35.2193 30.8282 35.2193C30.1143 35.2193 29.6104 34.7142 29.6104 33.9145C29.6104 33.1568 30.1143 32.6518 30.8282 32.6097C31.2061 32.6097 31.542 32.7359 31.878 32.9885L32.2979 32.2729C31.878 31.9362 31.4581 31.8099 30.8702 31.8099C29.5684 31.8099 28.7285 32.6938 28.7285 33.9145ZM36.8752 33.9145V31.8941H35.9933V32.3992C35.6994 32.0204 35.2795 31.8099 34.7335 31.8099C33.5997 31.8099 32.7179 32.6938 32.7179 33.9145C32.7179 35.1351 33.5997 36.019 34.7335 36.019C35.3214 36.019 35.7414 35.8086 35.9933 35.4298V35.9349H36.8752V33.9145ZM33.6417 33.9145C33.6417 33.1989 34.1036 32.6097 34.8595 32.6097C35.5734 32.6097 36.0773 33.1568 36.0773 33.9145C36.0773 34.63 35.5734 35.2193 34.8595 35.2193C34.1036 35.1772 33.6417 34.63 33.6417 33.9145ZM23.1014 31.8099C21.9256 31.8099 21.0857 32.6517 21.0857 33.9145C21.0857 35.1772 21.9256 36.019 23.1434 36.019C23.7313 36.019 24.3192 35.8507 24.7811 35.4719L24.3612 34.8405C24.0253 35.093 23.6053 35.2614 23.1854 35.2614C22.6395 35.2614 22.0936 35.0089 21.9676 34.2933H24.9491C24.9491 34.167 24.9491 34.0829 24.9491 33.9566C24.9911 32.6518 24.2352 31.8099 23.1014 31.8099ZM23.1014 32.5676C23.6473 32.5676 24.0252 32.9043 24.1092 33.5357H22.0096C22.0936 32.9885 22.4715 32.5676 23.1014 32.5676ZM44.9799 33.9145V30.2947H44.098V32.3992C43.8041 32.0204 43.3841 31.8099 42.8382 31.8099C41.7044 31.8099 40.8226 32.6938 40.8226 33.9145C40.8226 35.1351 41.7044 36.019 42.8382 36.019C43.4261 36.019 43.8461 35.8086 44.098 35.4298V35.9349H44.9799V33.9145ZM41.7464 33.9145C41.7464 33.1989 42.2083 32.6097 42.9642 32.6097C43.6781 32.6097 44.182 33.1568 44.182 33.9145C44.182 34.63 43.6781 35.2193 42.9642 35.2193C42.2083 35.1772 41.7464 34.63 41.7464 33.9145ZM12.2671 33.9145V31.8941H11.3853V32.3992C11.0913 32.0204 10.6714 31.8099 10.1255 31.8099C8.99166 31.8099 8.1098 32.6938 8.1098 33.9145C8.1098 35.1351 8.99166 36.019 10.1255 36.019C10.7134 36.019 11.1333 35.8086 11.3853 35.4298V35.9349H12.2671V33.9145ZM8.99166 33.9145C8.99166 33.1989 9.45358 32.6097 10.2095 32.6097C10.9233 32.6097 11.4273 33.1568 11.4273 33.9145C11.4273 34.63 10.9233 35.2193 10.2095 35.2193C9.45358 35.1772 8.99166 34.63 8.99166 33.9145Z" fill="#EDEDED"/>
</svg>
