<svg width="56" height="37" viewBox="0 0 56 37" fill="none" xmlns="http://www.w3.org/2000/svg">
<path d="M52.6154 2.78827H2.76929V7.17021H52.6154V2.78827Z" fill="#EDEDED"/>
<path d="M26.1354 12.0063L23.5431 24.0612H20.4076L23.0004 12.0063H26.1354ZM39.3264 19.7904L40.9767 15.2636L41.9261 19.7904H39.3264ZM42.826 24.0612H45.7254L43.1925 12.0063H40.5179C39.9148 12.0063 39.4073 12.3543 39.1823 12.8903L34.4774 24.0612H37.7703L38.4239 22.2611H42.446L42.826 24.0612ZM34.641 20.1257C34.6548 16.9445 30.2194 16.7681 30.2491 15.3468C30.2588 14.9147 30.6726 14.4543 31.5785 14.3368C32.0275 14.2792 33.2664 14.2328 34.6707 14.8764L35.2201 12.3188C34.4657 12.0477 33.4949 11.7863 32.2872 11.7863C29.1877 11.7863 27.0073 13.424 26.9897 15.7709C26.9697 17.5065 28.5477 18.4742 29.7335 19.0519C30.9561 19.6424 31.3657 20.0222 31.3602 20.5497C31.3519 21.3586 30.3846 21.7167 29.4849 21.7303C27.9074 21.7548 26.9932 21.3063 26.2645 20.9683L25.6954 23.6108C26.4294 23.9449 27.7816 24.2356 29.1812 24.2505C32.4763 24.2505 34.6313 22.6321 34.641 20.1257ZM21.6552 12.0063L16.575 24.0612H13.2612L10.7609 14.4407C10.6094 13.849 10.4774 13.6316 10.0167 13.3817C9.26235 12.9743 8.01781 12.5935 6.9231 12.3566L6.9973 12.0063H12.3327C13.0122 12.0063 13.6236 12.4565 13.7791 13.2349L15.0998 20.2113L18.3613 12.0063H21.6552Z" fill="#EDEDED"/>
<path d="M52.6154 28.8676H2.76929V33.25H52.6154V28.8676Z" fill="#EDEDED"/>
<rect x="0.70146" y="0.720503" width="53.9817" height="34.5971" stroke="#EDEDED" stroke-width="1.40292"/>
</svg>
